#define basicwin_icon_width 20
#define basicwin_icon_height 20
static unsigned char basicwin_icon_bits[] = {
   0x00, 0x00, 0x00, 0x00, 0x00, 0x00, 0x3c, 0xf8, 0x00, 0x18, 0x60, 0x00,
   0x30, 0x30, 0x00, 0x60, 0x38, 0x00, 0xe0, 0x1c, 0x00, 0xc0, 0x0e, 0x00,
   0x80, 0x07, 0x00, 0x00, 0x03, 0x00, 0x80, 0x07, 0x00, 0xc0, 0x0c, 0x00,
   0x60, 0x1c, 0x00, 0x30, 0x18, 0x00, 0x30, 0x70, 0x00, 0x18, 0xe0, 0x00,
   0x7c, 0xf0, 0x03, 0x00, 0x00, 0x00, 0x00, 0x00, 0x00, 0x00, 0x00, 0x00};
